<?xml version="1.0" encoding="UTF-8" standalone="no"?>
<!DOCTYPE svg PUBLIC "-//W3C//DTD SVG 1.1//EN" "http://www.w3.org/Graphics/SVG/1.1/DTD/svg11.dtd">
<svg width="100%" height="100%" viewBox="0 0 907 916" version="1.1" xmlns="http://www.w3.org/2000/svg" xmlns:xlink="http://www.w3.org/1999/xlink" xml:space="preserve" xmlns:serif="http://www.serif.com/" style="fill-rule:evenodd;clip-rule:evenodd;stroke-linejoin:round;stroke-miterlimit:1.41421;">
    <g transform="matrix(1,0,0,1,-27,-3227)">
        <g id="Artboard2" transform="matrix(1,0,0,1,-0.237463,-0.0308341)">
            <rect x="27.237" y="3227.03" width="906.122" height="915.23" style="fill:#66b2ec;"/>
            <clipPath id="_clip1">
                <rect x="27.237" y="3227.03" width="906.122" height="915.23"/>
            </clipPath>
            <g clip-path="url(#_clip1)">
                <g transform="matrix(1,0,0,1,-2873.24,3207.06)">
                    <g transform="matrix(1,0,0,1,2873.47,-1946.73)">
                        <path d="M703.132,2061.81C681.525,2050.41 658.996,2040.84 635.785,2033.22L596.651,2085.12C576.353,2079.7 555.673,2074.82 534.714,2074.05C506.969,2073.02 464.299,2071.72 430.184,2079C394.852,2086.54 358.614,2099.83 322.725,2119.26C297.977,2132.66 273.654,2146.2 252.453,2164.82C231.252,2183.43 214.679,2205.8 198.195,2228.61C181.711,2251.42 165.672,2274.17 154.648,2300.14C143.623,2326.11 138.398,2353.46 133.442,2381.16C126.255,2421.33 123.627,2455.74 128.93,2495.82L72.403,2527.92C76.96,2551.92 83.529,2575.49 92.043,2598.39L157.022,2596.63C165.436,2615.88 175.456,2634.39 186.976,2651.96L149.972,2705.4C164.491,2725.05 180.64,2743.44 198.246,2760.38L256.024,2730.6C271.958,2744.29 289.017,2756.62 307.02,2767.45L296.868,2831.66C318.475,2843.06 341.004,2852.62 364.215,2860.25L403.349,2808.34C423.647,2813.77 444.366,2817.47 465.286,2819.42L483.997,2881.68C508.412,2882.57 532.859,2881.41 557.079,2878.21L569.816,2814.47C590.458,2810.55 610.734,2804.9 630.428,2797.58L674.296,2845.55C696.682,2835.76 718.205,2824.11 738.637,2810.72L722.456,2747.76C739.354,2735.27 755.17,2721.38 769.737,2706.24L830.073,2730.43C845.998,2711.9 860.334,2692.06 872.93,2671.13L831.036,2621.43C840.842,2602.85 849.066,2583.47 855.621,2563.51L920.475,2559.12C926.784,2535.52 931.094,2511.43 933.36,2487.1L874.05,2460.5C874.822,2439.5 873.825,2418.48 871.07,2397.65L927.597,2365.55C923.04,2341.55 916.471,2317.97 907.957,2295.07L842.978,2296.84C834.564,2277.59 824.544,2259.08 813.024,2241.51L850.028,2188.06C835.509,2168.42 819.36,2150.03 801.754,2133.09L743.976,2162.87C728.042,2149.18 710.983,2136.85 692.98,2126.01L703.132,2061.81ZM608.945,2190.08C643.177,2204.61 674.365,2225.93 700.24,2252.65C725.197,2278.41 745.035,2309.05 758.469,2342.31C771.904,2375.56 778.917,2411.38 778.864,2447.25C778.823,2474.88 774.654,2502.49 766.464,2528.89C730.559,2644.62 620.768,2725.78 499.485,2725.6C462.293,2725.54 425.288,2717.92 391.055,2703.39C356.823,2688.86 325.635,2667.54 299.76,2640.82C215.38,2553.7 197.493,2418.35 255.801,2312.13C269.1,2287.9 286.064,2265.72 305.914,2246.49C331.681,2221.54 362.32,2201.7 395.572,2188.26C428.823,2174.83 464.644,2167.82 500.515,2167.87C537.707,2167.93 574.712,2175.55 608.945,2190.08Z" style="fill:white;"/>
                    </g>
                    <g transform="matrix(1.44144,0,0,1.44144,-1489.17,-210.602)">
                        <g transform="matrix(0.850834,0,0,0.833572,2916.81,-1614.91)">
                            <circle cx="536.137" cy="2528.32" r="176.49" style="fill:white;"/>
                            <clipPath id="_clip2">
                                <circle cx="536.137" cy="2528.32" r="176.49"/>
                            </clipPath>
                            <g clip-path="url(#_clip2)">
                                <g transform="matrix(1.88044,0,0,2.01082,-405.874,-2369.77)">
                                    <path d="M555.044,2315.12L520.953,2282.58L481.582,2282.58L447.491,2315.12L447.491,2362.01L481.582,2394.55L520.953,2394.55L555.044,2362.01L555.044,2315.12Z" style="fill:rgb(64,64,64);"/>
                                </g>
                            </g>
                        </g>
                        <g transform="matrix(0.79383,0,0,1,2980.86,-1930.79)">
                            <path d="M699.112,2406.67C699.112,2399.94 692.229,2394.48 683.752,2394.48C675.275,2394.48 668.393,2399.94 668.393,2406.67L668.393,2454.91C668.393,2461.64 675.275,2467.11 683.752,2467.11C692.229,2467.11 699.112,2461.64 699.112,2454.91L699.112,2406.67Z" style="fill:rgb(242,242,242);"/>
                        </g>
                        <g transform="matrix(0.79383,0,0,1,2680.53,-1930.79)">
                            <path d="M699.112,2406.67C699.112,2399.94 692.229,2394.48 683.752,2394.48C675.275,2394.48 668.393,2399.94 668.393,2406.67L668.393,2454.91C668.393,2461.64 675.275,2467.11 683.752,2467.11C692.229,2467.11 699.112,2461.64 699.112,2454.91L699.112,2406.67Z" style="fill:rgb(242,242,242);"/>
                        </g>
                        <g transform="matrix(0.850834,0,0,0.791767,2917.31,-1501.84)">
                            <path d="M359.646,2528.32C359.646,2625.79 438.664,2704.8 536.137,2704.8C633.61,2704.8 712.627,2625.79 712.627,2528.32C712.627,2528.32 574.901,2562.06 536.137,2560.35C497.372,2558.64 359.646,2528.32 359.646,2528.32Z" style="fill:rgb(242,242,242);"/>
                            <clipPath id="_clip3">
                                <path d="M359.646,2528.32C359.646,2625.79 438.664,2704.8 536.137,2704.8C633.61,2704.8 712.627,2625.79 712.627,2528.32C712.627,2528.32 574.901,2562.06 536.137,2560.35C497.372,2558.64 359.646,2528.32 359.646,2528.32Z"/>
                            </clipPath>
                            <g clip-path="url(#_clip3)">
                                <g transform="matrix(1.88044,0,0,2.11699,-407.059,-2215.65)">
                                    <path d="M555.044,2298.37L538.506,2298.37L538.506,2282.58L464.029,2282.58L464.029,2298.37L447.491,2298.37L447.491,2378.77L464.029,2378.77L464.029,2394.55L538.506,2394.55L538.506,2378.77L555.044,2378.77L555.044,2298.37Z" style="fill:rgb(64,64,64);"/>
                                </g>
                            </g>
                        </g>
                        <g transform="matrix(1.2342,0,0,1,2752.5,-1931.39)">
                            <path d="M587.056,2420.93C587.056,2406.69 579.929,2390.81 566.149,2395.13C523.207,2408.57 484.506,2408.99 441.683,2396.08C427.095,2391.69 419.225,2406.69 419.225,2420.93C419.225,2435.17 429.597,2442.77 440.133,2446.73C479.811,2461.65 530.464,2464.03 566.149,2446.73C576.4,2441.77 587.056,2435.17 587.056,2420.93Z" style="fill:rgb(64,64,64);"/>
                        </g>
                        <g transform="matrix(1.04315,0,0,1.04315,2860.98,-2064.28)">
                            <ellipse cx="454.216" cy="2458.07" rx="15.704" ry="16.106" style="fill:white;"/>
                        </g>
                        <g transform="matrix(1.04315,0,0,1.04315,2945.99,-2064.21)">
                            <ellipse cx="454.216" cy="2458.07" rx="15.704" ry="16.106" style="fill:white;"/>
                        </g>
                    </g>
                    <g transform="matrix(1.03839,0.0771936,-0.0771936,1.03839,3046.18,-2005)">
                        <g transform="matrix(0.0270521,-0.999634,1.00338,0.0271535,-2296.22,2473.62)">
                            <text x="127.27px" y="2411.89px" style="font-family:'Futura-Bold', 'Futura', sans-serif;font-weight:700;font-size:84.592px;fill:rgb(64,64,64);">W</text>
                        </g>
                        <g transform="matrix(0.274439,-0.961604,0.96521,0.275468,-2128.93,1798.57)">
                            <text x="133.111px" y="2305.73px" style="font-family:'Futura-Bold', 'Futura', sans-serif;font-weight:700;font-size:84.592px;fill:rgb(64,64,64);">A</text>
                        </g>
                        <g transform="matrix(0.478222,-0.878239,0.881532,0.480015,-1882.71,1296.43)">
                            <text x="156.728px" y="2228.49px" style="font-family:'Futura-Bold', 'Futura', sans-serif;font-weight:700;font-size:84.592px;fill:rgb(64,64,64);">R</text>
                        </g>
                        <g transform="matrix(0.64737,-0.762176,0.765034,0.649798,-1588.41,904.404)">
                            <text x="191.96px" y="2164.74px" style="font-family:'Futura-Bold', 'Futura', sans-serif;font-weight:700;font-size:84.592px;fill:rgb(64,64,64);">H</text>
                        </g>
                        <g transform="matrix(0.801699,-0.597728,0.599969,0.804706,-1212.3,558.266)">
                            <text x="247.109px" y="2102.27px" style="font-family:'Futura-Bold', 'Futura', sans-serif;font-weight:700;font-size:84.592px;fill:rgb(64,64,64);">A</text>
                        </g>
                        <g transform="matrix(0.905542,-0.424256,0.425847,0.908938,-846.548,319.133)">
                            <text x="310.738px" y="2056.84px" style="font-family:'Futura-Bold', 'Futura', sans-serif;font-weight:700;font-size:84.592px;fill:rgb(64,64,64);">C</text>
                        </g>
                        <g transform="matrix(0.977842,-0.209344,0.210129,0.981509,-417.587,116.284)">
                            <text x="376.43px" y="2026.99px" style="font-family:'Futura-Bold', 'Futura', sans-serif;font-weight:700;font-size:84.592px;fill:rgb(64,64,64);">K</text>
                        </g>
                        <g transform="matrix(0.999923,-0.0124206,0.0124672,1.00367,-25.0472,-1.74063)">
                            <text x="454.736px" y="2011.87px" style="font-family:'Futura-Bold', 'Futura', sans-serif;font-weight:700;font-size:84.592px;fill:rgb(64,64,64);">S</text>
                        </g>
                    </g>
                </g>
            </g>
        </g>
    </g>
</svg>
